<svg xmlns="http://www.w3.org/2000/svg" viewBox="0 0 100 100">
  <rect width="100" height="100" rx="22" fill="#fdfaf5"/>
  <ellipse cx="50" cy="68" rx="24" ry="20" fill="#e8953a"/>
  <ellipse cx="50" cy="71" rx="14" ry="13" fill="#f5c97e"/>
  <ellipse cx="50" cy="39" rx="22" ry="20" fill="#e8953a"/>
  <polygon points="28,26 17,5 40,20" fill="#e8953a"/>
  <polygon points="29,25 21,11 38,21" fill="#f4a0a0"/>
  <polygon points="72,26 83,5 60,20" fill="#e8953a"/>
  <polygon points="71,25 79,11 62,21" fill="#f4a0a0"/>
  <ellipse cx="38" cy="39" rx="5" ry="6" fill="#2d5a1b"/>
  <ellipse cx="62" cy="39" rx="5" ry="6" fill="#2d5a1b"/>
  <ellipse cx="38" cy="39" rx="3" ry="4" fill="#1a3a0f"/>
  <ellipse cx="62" cy="39" rx="3" ry="4" fill="#1a3a0f"/>
  <circle cx="40" cy="37" r="2" fill="white"/>
  <circle cx="64" cy="37" r="2" fill="white"/>
  <polygon points="47,47 50,43 53,47" fill="#f4a0a0"/>
  <line x1="18" y1="45" x2="36" y2="47" stroke="#8d6035" stroke-width="1.2" stroke-linecap="round"/>
  <line x1="16" y1="49" x2="36" y2="49" stroke="#8d6035" stroke-width="1.2" stroke-linecap="round"/>
  <line x1="64" y1="47" x2="82" y2="45" stroke="#8d6035" stroke-width="1.2" stroke-linecap="round"/>
  <line x1="64" y1="49" x2="84" y2="49" stroke="#8d6035" stroke-width="1.2" stroke-linecap="round"/>
  <ellipse cx="35" cy="87" rx="9" ry="6" fill="#e8953a"/>
  <ellipse cx="65" cy="87" rx="9" ry="6" fill="#e8953a"/>
</svg>
